# Blender v2.74 (sub 0) OBJ File: ''
# www.blender.org
mtllib new-arrow.mtl
o Polygon_2.001_Polygon_2
v -1.188476 -1.000000 9.173640
v -1.186836 -1.000000 9.140254
v -1.182463 -1.000000 9.140254
v -1.179731 -1.000000 9.993446
v -1.187929 -1.000000 9.948932
v -0.803142 -1.000000 10.270426
v -1.169346 -1.000000 9.151383
v -0.966022 -1.000000 9.294819
v -1.190663 -1.000000 9.326349
v -1.183010 -1.000000 9.986646
v -1.185743 -1.000000 9.973044
v -1.190116 -1.000000 9.855576
v -0.140696 -1.000000 9.885870
v -0.005147 -1.000000 10.852821
v -0.672511 -1.000000 10.364399
v 0.004692 -1.000000 9.986646
v 1.206600 -1.000000 9.987883
v 0.519017 -1.000000 9.629294
v 1.209336 -1.000000 9.436399
v 0.019996 -1.000000 10.859004
v 0.012344 -1.000000 10.863331
v 1.105489 -1.000000 9.207644
v 0.147894 -1.000000 9.892053
v 1.209336 -1.000000 9.263288
v 1.204968 -1.000000 9.153855
v 1.199499 -1.000000 9.142727
v 1.202784 -1.000000 9.144582
v 1.207152 -1.000000 9.174876
v 0.016716 -1.000000 9.982318
v 0.011797 -1.000000 9.986646
v -0.011159 -1.000000 9.974899
v -1.182463 -0.900000 9.140254
v -1.186836 -0.900000 9.140254
v -1.188476 -0.900000 9.173640
v -0.803142 -0.900000 10.270426
v -1.187929 -0.900000 9.948932
v -1.179731 -0.900000 9.993446
v -1.190663 -0.900000 9.326349
v -0.966022 -0.900000 9.294819
v -1.169346 -0.900000 9.151383
v -1.185743 -0.900000 9.973044
v -1.183010 -0.900000 9.986646
v -1.190116 -0.900000 9.855576
v -0.140696 -0.900000 9.885870
v 0.004692 -0.900000 9.986646
v -0.672511 -0.900000 10.364399
v -0.005147 -0.900000 10.852821
v 1.209336 -0.900000 9.436399
v 0.519017 -0.900000 9.629294
v 1.206600 -0.900000 9.987883
v 0.012344 -0.900000 10.863331
v 0.019996 -0.900000 10.859004
v 1.105489 -0.900000 9.207644
v 0.147894 -0.900000 9.892053
v 1.209336 -0.900000 9.263288
v 1.202784 -0.900000 9.144582
v 1.199499 -0.900000 9.142727
v 1.204968 -0.900000 9.153855
v 1.207152 -0.900000 9.174876
v 0.016716 -0.900000 9.982318
v 0.011797 -0.900000 9.986646
v -0.011159 -0.900000 9.974899
vn 0.000000 -1.000000 0.000000
vn 0.000000 1.000000 -0.000000
vn -0.998800 0.000000 -0.049100
vn -0.999900 0.000000 -0.014300
vn -1.000000 0.000000 0.001000
vn -0.999700 0.000000 0.023400
vn -0.995900 0.000000 0.090300
vn -0.980400 0.000000 0.197000
vn -0.900700 0.000000 0.434400
vn -0.900800 0.000000 0.434300
vn -0.592500 0.000000 0.805600
vn -0.584000 0.000000 0.811800
vn -0.590600 0.000000 0.807000
vn -0.515000 0.000000 0.857200
vn 0.492200 0.000000 0.870500
vn 0.591800 0.000000 0.806100
vn 1.000000 0.000000 0.005000
vn 1.000000 0.000000 0.000000
vn 0.999700 0.000000 -0.024700
vn 0.994600 0.000000 -0.103300
vn 0.973400 0.000000 -0.229200
vn 0.492400 -0.000000 -0.870400
vn 0.491900 -0.000000 -0.870600
vn -0.568200 0.000000 -0.822900
vn -0.583700 0.000000 -0.811900
vn -0.577800 0.000000 -0.816200
vn -0.577800 0.000000 -0.816100
vn -0.566900 0.000000 -0.823800
vn -0.660600 0.000000 -0.750700
vn -0.660500 0.000000 -0.750800
vn 0.000000 0.000000 -1.000000
vn 0.595400 0.000000 -0.803400
vn 0.566400 0.000000 -0.824100
vn 0.582200 0.000000 -0.813000
vn 0.576400 0.000000 -0.817100
vn 0.576500 0.000000 -0.817100
vn 0.647000 0.000000 -0.762500
usemtl 44b8e7
s 1
f 1//1 2//1 3//1
f 4//1 5//1 6//1
f 7//1 8//1 9//1
f 10//1 11//1 4//1
f 4//1 11//1 5//1
f 6//1 5//1 12//1
f 13//1 6//1 8//1
f 14//1 15//1 16//1
f 17//1 18//1 19//1
f 14//1 20//1 21//1
f 19//1 18//1 22//1
f 17//1 23//1 18//1
f 22//1 24//1 19//1
f 25//1 26//1 27//1
f 25//1 28//1 26//1
f 26//1 28//1 22//1
f 13//1 15//1 6//1
f 22//1 28//1 24//1
f 17//1 20//1 23//1
f 23//1 20//1 29//1
f 29//1 20//1 30//1
f 16//1 30//1 14//1
f 30//1 20//1 14//1
f 31//1 15//1 13//1
f 16//1 15//1 31//1
f 8//1 12//1 9//1
f 6//1 12//1 8//1
f 3//1 7//1 1//1
f 7//1 9//1 1//1
f 32//2 33//2 34//2
f 35//2 36//2 37//2
f 38//2 39//2 40//2
f 37//2 41//2 42//2
f 36//2 41//2 37//2
f 43//2 36//2 35//2
f 39//2 35//2 44//2
f 45//2 46//2 47//2
f 48//2 49//2 50//2
f 51//2 52//2 47//2
f 53//2 49//2 48//2
f 49//2 54//2 50//2
f 48//2 55//2 53//2
f 56//2 57//2 58//2
f 57//2 59//2 58//2
f 53//2 59//2 57//2
f 35//2 46//2 44//2
f 55//2 59//2 53//2
f 54//2 52//2 50//2
f 60//2 52//2 54//2
f 61//2 52//2 60//2
f 47//2 61//2 45//2
f 47//2 52//2 61//2
f 44//2 46//2 62//2
f 62//2 46//2 45//2
f 38//2 43//2 39//2
f 39//2 43//2 35//2
f 34//2 40//2 32//2
f 34//2 38//2 40//2
f 1//3 33//3 2//3
f 1//3 34//3 33//3
f 9//4 34//4 1//4
f 9//4 38//4 34//4
f 12//5 38//5 9//5
f 12//5 43//5 38//5
f 5//6 43//6 12//6
f 5//6 36//6 43//6
f 11//7 36//7 5//7
f 11//7 41//7 36//7
f 10//8 41//8 11//8
f 10//8 42//8 41//8
f 4//9 42//10 10//9
f 4//9 37//10 42//10
f 6//11 37//11 4//11
f 6//11 35//11 37//11
f 15//12 35//12 6//12
f 15//12 46//12 35//12
f 14//13 46//13 15//13
f 14//13 47//13 46//13
f 21//14 47//14 14//14
f 21//14 51//14 47//14
f 20//15 51//15 21//15
f 20//15 52//15 51//15
f 17//16 52//16 20//16
f 17//16 50//16 52//16
f 19//17 50//17 17//17
f 19//17 48//17 50//17
f 24//18 48//18 19//18
f 24//18 55//18 48//18
f 28//19 55//19 24//19
f 28//19 59//19 55//19
f 25//20 59//20 28//20
f 25//20 58//20 59//20
f 27//21 58//21 25//21
f 27//21 56//21 58//21
f 26//22 56//23 27//22
f 26//22 57//23 56//23
f 22//24 57//24 26//24
f 22//24 53//24 57//24
f 18//25 53//25 22//25
f 18//25 49//25 53//25
f 23//26 49//27 18//27
f 23//26 54//26 49//27
f 29//28 54//28 23//28
f 29//28 60//28 54//28
f 30//29 60//30 29//29
f 30//29 61//30 60//30
f 16//31 61//31 30//31
f 16//31 45//31 61//31
f 31//32 45//32 16//32
f 31//32 62//32 45//32
f 13//33 62//33 31//33
f 13//33 44//33 62//33
f 8//34 44//34 13//34
f 8//34 39//34 44//34
f 7//35 39//35 8//36
f 7//35 40//35 39//35
f 3//37 40//37 7//37
f 3//37 32//37 40//37
f 2//31 32//31 3//31
f 2//31 33//31 32//31
